<?xml version="1.0" encoding="UTF-8" standalone="no"?>
<!-- Created with Inkscape (http://www.inkscape.org/) -->

<svg
   xmlns:dc="http://purl.org/dc/elements/1.1/"
   xmlns:cc="http://creativecommons.org/ns#"
   xmlns:rdf="http://www.w3.org/1999/02/22-rdf-syntax-ns#"
   xmlns:svg="http://www.w3.org/2000/svg"
   xmlns="http://www.w3.org/2000/svg"
   xmlns:sodipodi="http://sodipodi.sourceforge.net/DTD/sodipodi-0.dtd"
   xmlns:inkscape="http://www.inkscape.org/namespaces/inkscape"
   id="svg4244"
   version="1.1"
   inkscape:version="0.91 r13725"
   width="676.25"
   height="637.5"
   viewBox="0 0 676.25 637.5"
   sodipodi:docname="logo proyecto-mod.svg">
  <metadata
     id="metadata4250">
    <rdf:RDF>
      <cc:Work
         rdf:about="">
        <dc:format>image/svg+xml</dc:format>
        <dc:type
           rdf:resource="http://purl.org/dc/dcmitype/StillImage" />
        <dc:title></dc:title>
      </cc:Work>
    </rdf:RDF>
  </metadata>
  <defs
     id="defs4248" />
  <sodipodi:namedview
     pagecolor="#ffffff"
     bordercolor="#666666"
     borderopacity="1"
     objecttolerance="10"
     gridtolerance="10"
     guidetolerance="10"
     inkscape:pageopacity="0"
     inkscape:pageshadow="2"
     inkscape:window-width="1285"
     inkscape:window-height="735"
     id="namedview4246"
     showgrid="false"
     inkscape:zoom="0.86117647"
     inkscape:cx="193.72675"
     inkscape:cy="225.85383"
     inkscape:window-x="0"
     inkscape:window-y="0"
     inkscape:window-maximized="0"
     inkscape:current-layer="svg4244" />
  <rect
     style="fill:none;fill-opacity:1;stroke:none;stroke-opacity:1"
     id="rect4322"
     width="405.25955"
     height="405.25955"
     x="139.34427"
     y="198.56557"
     rx="0"
     ry="0"
     inkscape:export-xdpi="113.7049"
     inkscape:export-ydpi="113.7049" />
  <path
     inkscape:connector-curvature="0"
     id="path4268"
     d="m 207.57843,576.63345 c -0.82113,-0.98941 -0.58452,-2.43213 1.36843,-8.34406 5.47204,-16.56478 13.60821,-32.78083 34.71393,-69.18775 29.138,-50.26239 31.52869,-55.27937 35.65549,-74.82496 2.01805,-9.55797 3.86012,-28.50433 2.99144,-30.76807 -0.27309,-0.71167 -1.92226,-2.52966 -3.66482,-4.04 -10.73687,-9.30599 -20.00714,-21.62856 -26.35625,-35.03427 -9.56233,-20.19013 -10.09033,-52.6971 -1.20271,-74.04611 3.31726,-7.96845 5.95551,-11.65918 13.53769,-18.93837 19.1069,-18.3434 45.66578,-28.36576 74.84375,-28.24332 22.01326,0.0924 45.23123,5.37407 65.63424,14.93069 15.22958,7.13343 26.0766,17.59689 33.49508,32.31066 5.49599,10.90073 8.2122,23.49596 9.7885,45.39014 0.99447,13.81264 1.28947,15.60074 3.19393,19.35901 2.73192,5.39119 7.24427,11.46642 13.36443,17.9933 10.05245,10.72049 9.60874,15.67223 -1.90036,21.20789 -5.83649,2.80724 -5.84859,2.81947 -5.37585,5.43285 0.26061,1.4406 0.69138,3.82472 0.95729,5.29805 0.41713,2.31115 0.14022,3.02203 -2.01765,5.17991 -2.41018,2.41017 -2.46598,2.6076 -1.53475,5.42925 0.92297,2.79661 0.85733,3.0523 -1.46155,5.69336 -3.23339,3.68262 -3.72983,6.06343 -2.17117,10.41257 0.75513,2.10706 1.27823,5.92805 1.27598,9.32027 -0.004,6.84789 -2.21898,11.5245 -6.37647,13.46648 -3.70825,1.73214 -13.76162,3.50505 -23.10191,4.07402 -13.5716,0.82672 -22.98045,4.15056 -28.79472,10.17225 l -2.61893,2.71235 0.23038,15.09994 c 0.22091,14.47952 0.1437,15.40001 -1.87909,22.40327 -1.82864,6.33104 -1.99099,7.69549 -1.21951,10.24907 1.83895,6.087 6.73122,13.03425 14.91035,21.17342 9.81045,9.76252 12.05294,12.54732 19.04471,23.65041 2.95268,4.68892 7.72781,11.45549 10.61141,15.03682 4.11774,5.11411 5.05449,6.73853 4.36499,7.56934 -0.73413,0.88456 -19.58503,1.05782 -115.09571,1.05782 -101.97108,0 -114.32424,-0.12826 -115.21057,-1.19623 z"
     style="fill:#f7cf94"
     inkscape:export-xdpi="113.7049"
     inkscape:export-ydpi="113.7049" />
  <path
     inkscape:connector-curvature="0"
     id="path4266"
     d="m 207.87865,575.87112 c -0.5961,-1.55343 3.43331,-12.99224 9.00965,-25.57686 4.50204,-10.16013 13.47883,-27.02942 23.52681,-44.21181 11.57141,-19.78751 26.4392,-46.03231 29.35163,-51.8118 7.66083,-15.20237 12.2408,-33.49112 12.85911,-51.34908 l 0.37598,-10.85903 -5.54683,-4.65388 c -8.46643,-7.10347 -17.43695,-18.96789 -23.57911,-31.18578 -4.69628,-9.34176 -6.95119,-18.20134 -8.32947,-32.72665 -1.44409,-15.21878 1.76935,-34.08898 7.93847,-46.61708 2.63252,-5.34604 4.57891,-7.92052 10.29119,-13.61205 17.61332,-17.54934 41.2144,-27.52037 69.91575,-29.53813 13.80491,-0.97051 37.47916,2.67642 54.23615,8.35487 19.13422,6.48404 29.45378,12.49087 38.87149,22.62641 13.22042,14.22809 18.58185,29.82163 20.81164,60.53002 0.95418,13.14078 1.37188,15.82127 3.02969,19.44241 2.46088,5.37528 7.15533,11.78562 13.78998,18.83042 9.9894,10.60692 9.20771,15.8656 -3.10561,20.89254 -4.79994,1.95959 -4.92531,2.31763 -3.55798,10.16106 0.52981,3.0391 0.38527,3.45402 -1.96929,5.65351 -2.48348,2.31992 -2.51835,2.44248 -1.539,5.40994 0.96686,2.92958 0.91676,3.13341 -1.42586,5.8015 -3.18928,3.6324 -3.64569,5.81117 -2.14184,10.22471 1.43666,4.21641 1.65887,14.29996 0.37024,16.802 -1.36803,2.6562 -3.99092,5.28046 -6.0851,6.08828 -3.40366,1.31295 -12.62473,2.80016 -20.57775,3.31885 -14.10898,0.92018 -24.49474,4.43045 -30.31581,10.24641 -3.24881,3.24597 -3.59592,5.67336 -2.96101,20.70719 0.50143,11.87308 0.42264,13.03932 -1.24438,18.41824 -0.97884,3.1584 -1.78746,7.31322 -1.79693,9.23294 -0.032,6.4703 5.88899,15.57931 17.39405,26.75978 6.43819,6.25655 9.50208,10.08131 15.84427,19.77897 4.32444,6.61237 9.69565,14.22425 11.93601,16.91528 2.37564,2.85351 3.89451,5.35895 3.64419,6.01126 -0.37114,0.96718 -15.85839,1.11847 -114.4978,1.11847 -101.51198,0 -114.11857,-0.13021 -114.52253,-1.18291 z m 219.07586,-4.60487 c 0.16326,-0.16326 -1.05595,-2.15642 -2.70936,-4.42925 -1.65341,-2.27282 -5.42117,-7.97186 -8.3728,-12.66452 -3.91704,-6.22752 -7.90927,-11.15094 -14.78013,-18.22767 -9.64446,-9.93342 -12.62693,-13.75166 -16.07423,-20.57869 -3.18244,-6.30251 -3.37585,-9.94857 -0.9071,-17.10051 2.08104,-6.02874 2.11221,-6.39216 1.65064,-19.24461 -0.60937,-16.96805 -0.041,-19.82626 4.89818,-24.63198 7.10179,-6.90989 16.50168,-10.1074 33.80452,-11.49911 10.73078,-0.8631 18.63045,-2.50796 20.38002,-4.24353 2.01871,-2.00255 2.55834,-8.08684 1.16996,-13.19129 -2.24358,-8.24862 -2.20987,-9.20581 0.50335,-14.29634 l 2.49557,-4.68217 -2.36326,-3.21354 c -1.2998,-1.76745 -2.19724,-3.64621 -1.99431,-4.17502 0.20292,-0.52881 2.01085,-1.27875 4.01761,-1.66654 3.27669,-0.63319 3.62709,-0.90276 3.43711,-2.64418 -0.11635,-1.06652 -0.42227,-3.78259 -0.67981,-6.03573 -0.56787,-4.96804 0.52021,-6.51395 5.83037,-8.28362 5.30628,-1.76837 8.63479,-4.02474 8.63479,-5.85346 0,-0.89309 -2.47247,-4.22392 -5.68662,-7.66081 -6.26823,-6.70264 -11.92301,-14.76223 -14.83614,-21.14551 -1.56415,-3.42737 -2.04338,-6.2523 -2.74407,-16.17511 -1.71901,-24.34408 -3.83163,-34.924 -9.21551,-46.15092 -8.33988,-17.39103 -21.31414,-27.72139 -45.08223,-35.89536 -34.22158,-11.76898 -67.59757,-11.52055 -94.58252,0.70402 -13.42911,6.08358 -29.92923,19.90834 -34.80365,29.16052 -2.86998,5.44752 -5.67924,14.26092 -7.11578,22.32414 -1.54095,8.64922 -0.66761,31.63621 1.51746,39.94099 4.00593,15.22527 12.35615,28.82852 25.75223,41.9527 l 9.17397,8.98776 0,8.56097 c 0,8.71758 -1.97033,22.74023 -4.65948,33.16117 -3.82906,14.83823 -8.73937,24.71573 -33.36689,67.12041 -19.75985,34.0233 -32.83978,59.95578 -35.30156,69.98942 l -0.52025,2.12041 21.21726,0.20652 c 29.15794,0.28382 190.94558,-0.17247 191.31266,-0.53956 z M 327.59735,390.882 c -1.09661,-0.86259 -2.10355,-2.52054 -2.23763,-3.68431 -0.18913,-1.6416 -0.59157,-2.04994 -1.79507,-1.82143 -0.85321,0.162 -3.82859,0.33652 -6.61195,0.38782 -4.16185,0.0767 -5.45472,-0.21668 -7.27933,-1.65191 -1.80879,-1.4228 -3.197,-1.74521 -7.51449,-1.74521 -10.61784,0 -18.54588,-5.21472 -23.49366,-15.45309 l -2.45069,-5.07119 -4.91605,-1.2854 c -2.70382,-0.70696 -5.83714,-1.96388 -6.96294,-2.79314 -2.90282,-2.13821 -6.54907,-8.50047 -8.60501,-15.01475 -1.65229,-5.2353 -1.73771,-6.53933 -1.38756,-21.18114 0.30297,-12.66902 0.686,-16.769 2.03736,-21.80755 3.52953,-13.15994 11.9816,-26.43314 24.12901,-37.89241 15.57516,-14.6928 31.79877,-19.58761 64.38556,-19.4257 21.34121,0.10603 24.18192,0.76429 46.79815,10.84426 13.98954,6.23508 17.11642,8.3738 27.67585,18.92968 10.8592,10.85555 13.21681,14.52785 15.04802,23.43933 1.52352,7.41407 1.52713,10.49708 0.0198,16.8925 -2.25978,9.58807 -7.72396,15.89929 -15.69163,18.12411 -3.26616,0.91202 -19.40075,3.60446 -21.59988,3.60446 -0.12298,0 -0.15149,2.38455 -0.0634,5.299 0.13952,4.61367 -0.11139,5.70944 -1.94003,8.47272 -2.49851,3.7755 -10.73819,9.85159 -16.14609,11.90644 -4.90896,1.86526 -9.07844,1.8573 -15.88578,-0.0303 -6.36299,-1.76441 -6.57542,-1.65955 -10.81563,5.3382 -3.2883,5.42677 -5.84469,12.96281 -5.85953,17.27344 -0.0235,6.80438 -3.8152,9.91064 -12.10039,9.91275 -3.58718,6.2e-4 -5.22911,-0.38104 -6.73702,-1.56716 z"
     style="fill:#35d2bf"
     inkscape:export-xdpi="113.7049"
     inkscape:export-ydpi="113.7049" />
  <path
     inkscape:connector-curvature="0"
     id="path4264"
     d="m 207.87865,575.87112 c -0.5961,-1.55343 3.43331,-12.99224 9.00965,-25.57686 4.50204,-10.16013 13.47883,-27.02942 23.52681,-44.21181 11.57141,-19.78751 26.4392,-46.03231 29.35163,-51.8118 7.66083,-15.20237 12.2408,-33.49112 12.85911,-51.34908 l 0.37598,-10.85903 -5.54683,-4.65388 c -8.46643,-7.10347 -17.43695,-18.96789 -23.57911,-31.18578 -4.69628,-9.34176 -6.95119,-18.20134 -8.32947,-32.72665 -1.44409,-15.21878 1.76935,-34.08898 7.93847,-46.61708 2.63252,-5.34604 4.57891,-7.92052 10.29119,-13.61205 17.61332,-17.54934 41.2144,-27.52037 69.91575,-29.53813 13.80491,-0.97051 37.47916,2.67642 54.23615,8.35487 19.13422,6.48404 29.45378,12.49087 38.87149,22.62641 13.22042,14.22809 18.58185,29.82163 20.81164,60.53002 0.95418,13.14078 1.37188,15.82127 3.02969,19.44241 2.46088,5.37528 7.15533,11.78562 13.78998,18.83042 9.9894,10.60692 9.20771,15.8656 -3.10561,20.89254 -4.79994,1.95959 -4.92531,2.31763 -3.55798,10.16106 0.52981,3.0391 0.38527,3.45402 -1.96929,5.65351 -2.48348,2.31992 -2.51835,2.44248 -1.539,5.40994 0.96686,2.92958 0.91676,3.13341 -1.42586,5.8015 -3.18928,3.6324 -3.64569,5.81117 -2.14184,10.22471 1.43666,4.21641 1.65887,14.29996 0.37024,16.802 -1.36803,2.6562 -3.99092,5.28046 -6.0851,6.08828 -3.40366,1.31295 -12.62473,2.80016 -20.57775,3.31885 -14.10898,0.92018 -24.49474,4.43045 -30.31581,10.24641 -3.24881,3.24597 -3.59592,5.67336 -2.96101,20.70719 0.50143,11.87308 0.42264,13.03932 -1.24438,18.41824 -0.97884,3.1584 -1.78746,7.31322 -1.79693,9.23294 -0.032,6.4703 5.88899,15.57931 17.39405,26.75978 6.43819,6.25655 9.50208,10.08131 15.84427,19.77897 4.32444,6.61237 9.69565,14.22425 11.93601,16.91528 2.37564,2.85351 3.89451,5.35895 3.64419,6.01126 -0.37114,0.96718 -15.85839,1.11847 -114.4978,1.11847 -101.51198,0 -114.11857,-0.13021 -114.52253,-1.18291 z m 219.07586,-4.60487 c 0.16326,-0.16326 -1.05595,-2.15642 -2.70936,-4.42925 -1.65341,-2.27282 -5.42117,-7.97186 -8.3728,-12.66452 -3.91704,-6.22752 -7.90927,-11.15094 -14.78013,-18.22767 -9.64446,-9.93342 -12.62693,-13.75166 -16.07423,-20.57869 -3.18244,-6.30251 -3.37585,-9.94857 -0.9071,-17.10051 2.08104,-6.02874 2.11221,-6.39216 1.65064,-19.24461 -0.60937,-16.96805 -0.041,-19.82626 4.89818,-24.63198 7.10179,-6.90989 16.50168,-10.1074 33.80452,-11.49911 10.73078,-0.8631 18.63045,-2.50796 20.38002,-4.24353 2.01871,-2.00255 2.55834,-8.08684 1.16996,-13.19129 -2.24358,-8.24862 -2.20987,-9.20581 0.50335,-14.29634 l 2.49557,-4.68217 -2.36326,-3.21354 c -1.2998,-1.76745 -2.19724,-3.64621 -1.99431,-4.17502 0.20292,-0.52881 2.01085,-1.27875 4.01761,-1.66654 3.27669,-0.63319 3.62709,-0.90276 3.43711,-2.64418 -0.11635,-1.06652 -0.42227,-3.78259 -0.67981,-6.03573 -0.56787,-4.96804 0.52021,-6.51395 5.83037,-8.28362 5.30628,-1.76837 8.63479,-4.02474 8.63479,-5.85346 0,-0.89309 -2.47247,-4.22392 -5.68662,-7.66081 -6.26823,-6.70264 -11.92301,-14.76223 -14.83614,-21.14551 -1.56415,-3.42737 -2.04338,-6.2523 -2.74407,-16.17511 -1.71901,-24.34408 -3.83163,-34.924 -9.21551,-46.15092 -8.33988,-17.39103 -21.31414,-27.72139 -45.08223,-35.89536 -34.22158,-11.76898 -67.59757,-11.52055 -94.58252,0.70402 -13.42911,6.08358 -29.92923,19.90834 -34.80365,29.16052 -2.86998,5.44752 -5.67924,14.26092 -7.11578,22.32414 -1.54095,8.64922 -0.66761,31.63621 1.51746,39.94099 4.00593,15.22527 12.35615,28.82852 25.75223,41.9527 l 9.17397,8.98776 0,8.56097 c 0,8.71758 -1.97033,22.74023 -4.65948,33.16117 -3.82906,14.83823 -8.73937,24.71573 -33.36689,67.12041 -19.75985,34.0233 -32.83978,59.95578 -35.30156,69.98942 l -0.52025,2.12041 21.21726,0.20652 c 29.15794,0.28382 190.94558,-0.17247 191.31266,-0.53956 z M 327.59735,390.882 c -1.09661,-0.86259 -2.10355,-2.52054 -2.23763,-3.68431 -0.18913,-1.6416 -0.59157,-2.04994 -1.79507,-1.82143 -0.85321,0.162 -3.82859,0.33652 -6.61195,0.38782 -4.16185,0.0767 -5.45472,-0.21668 -7.27933,-1.65191 -1.80879,-1.4228 -3.197,-1.74521 -7.51449,-1.74521 -10.61784,0 -18.54588,-5.21472 -23.49366,-15.45309 l -2.45069,-5.07119 -4.91605,-1.2854 c -2.70382,-0.70696 -5.83714,-1.96388 -6.96294,-2.79314 -2.90282,-2.13821 -6.54907,-8.50047 -8.60501,-15.01475 -1.65229,-5.2353 -1.73771,-6.53933 -1.38756,-21.18114 0.30297,-12.66902 0.686,-16.769 2.03736,-21.80755 3.52953,-13.15994 11.9816,-26.43314 24.12901,-37.89241 15.57516,-14.6928 31.79877,-19.58761 64.38556,-19.4257 21.34121,0.10603 24.18192,0.76429 46.79815,10.84426 13.98954,6.23508 17.11642,8.3738 27.67585,18.92968 10.8592,10.85555 13.21681,14.52785 15.04802,23.43933 1.52352,7.41407 1.52713,10.49708 0.0198,16.8925 -2.25978,9.58807 -7.72396,15.89929 -15.69163,18.12411 -3.26616,0.91202 -19.40075,3.60446 -21.59988,3.60446 -0.12298,0 -0.15149,2.38455 -0.0634,5.299 0.13952,4.61367 -0.11139,5.70944 -1.94003,8.47272 -2.49851,3.7755 -10.73819,9.85159 -16.14609,11.90644 -4.90896,1.86526 -9.07844,1.8573 -15.88578,-0.0303 -6.36299,-1.76441 -6.57542,-1.65955 -10.81563,5.3382 -3.2883,5.42677 -5.84469,12.96281 -5.85953,17.27344 -0.0235,6.80438 -3.8152,9.91064 -12.10039,9.91275 -3.58718,6.2e-4 -5.22911,-0.38104 -6.73702,-1.56716 z m 17.89362,-62.45943 c 3.48899,-1.4578 6.39063,-4.06483 6.36818,-5.72162 -0.009,-0.67219 -1.39691,-2.19866 -3.08401,-3.39215 l -3.06745,-2.16998 -2.17723,1.6097 c -3.15202,2.33039 -7.17275,2.78087 -10.54362,1.18129 -4.01711,-1.90625 -5.93179,-5.40851 -5.93179,-10.85026 0,-4.14622 0.21166,-4.67131 3.01133,-7.47099 3.67318,-3.67318 8.47602,-4.33067 13.32353,-1.82393 1.93879,1.0026 2.3126,0.92439 4.87669,-1.02034 3.3506,-2.54127 3.53987,-4.21972 0.70044,-6.21174 -5.77338,-4.05038 -14.93909,-4.26857 -21.82717,-0.5196 -6.78695,3.69392 -10.16821,9.55777 -10.16821,17.63394 0,8.54826 5.07578,15.99017 12.7693,18.72184 4.22813,1.50125 12.19703,1.51837 15.75001,0.0338 z m -33.56101,-3.84121 0,-3.87823 -9.10522,-0.21845 -9.10521,-0.21845 -0.51066,-2.03463 c -0.96043,-3.82664 0.28453,-4.48787 8.90608,-4.73024 7.74612,-0.21775 7.86727,-0.25022 8.36716,-2.24195 0.27898,-1.11154 0.18765,-2.93184 -0.20294,-4.04509 -0.69507,-1.981 -0.87821,-2.02881 -8.59972,-2.24466 -7.05683,-0.19729 -7.94061,-0.38149 -8.37345,-1.74521 -0.26614,-0.83855 -0.2659,-2.21147 5.3e-4,-3.05094 0.43798,-1.37994 1.31701,-1.5473 9.16611,-1.7452 l 8.68168,-0.2189 0,-3.87823 0,-3.87823 -13.18598,0 -13.18598,0 -0.20864,18.21163 c -0.11476,10.01639 -0.0353,18.66342 0.17662,19.21561 0.29914,0.77954 3.38044,0.95654 13.78245,0.7917 l 13.39717,-0.2123 0,-3.87823 z m 63.07645,2.49402 c 0.45482,-0.54801 0.93386,-3.07855 1.06454,-5.62343 l 0.2376,-4.62705 5.42952,-0.38782 5.42952,-0.38782 0,-3.49041 0,-3.4904 -5.42952,-0.38783 -5.42952,-0.38782 -0.2318,-4.88168 c -0.20504,-4.31803 -0.45132,-4.9817 -2.13302,-5.74793 -1.40007,-0.63791 -2.40239,-0.63791 -3.80245,0 -1.6817,0.76623 -1.92798,1.4299 -2.13303,5.74793 l -0.2318,4.88168 -5.42952,0.38782 -5.42952,0.38783 0,3.4904 0,3.49041 5.42952,0.38782 5.42952,0.38782 0.2376,4.62705 c 0.27408,5.33724 1.05458,6.61982 4.02845,6.61982 1.17535,0 2.50911,-0.44838 2.96391,-0.99639 z"
     style="fill:#b9996b"
     inkscape:export-xdpi="113.7049"
     inkscape:export-ydpi="113.7049" />
  <path
     inkscape:connector-curvature="0"
     id="path4262"
     d="m 208.75831,575.48531 c -0.83678,-1.35394 3.74869,-13.98038 10.14396,-27.93218 4.08955,-8.92166 13.86941,-27.04227 23.06446,-42.73492 11.32057,-19.32015 25.40099,-44.2198 28.57103,-50.52473 7.54489,-15.00604 12.18974,-33.42829 12.8786,-51.07877 l 0.41237,-10.56591 -8.85712,-8.82524 c -9.13805,-9.10514 -13.7875,-15.37043 -19.63018,-26.45229 -4.1331,-7.8393 -5.30902,-11.29348 -7.5152,-22.07523 -2.52444,-12.33714 -2.39579,-28.49074 0.32078,-40.27817 3.83793,-16.65315 8.87148,-25.54651 19.71536,-34.83351 15.07656,-12.91195 28.66507,-19.33687 50.27276,-23.76995 34.65532,-7.10996 87.52609,6.51598 107.29898,27.65326 14.32734,15.31597 19.57549,31.05058 21.78315,65.30865 0.66841,10.3723 1.00733,12.26742 2.84361,15.90074 2.95014,5.83722 8.11181,12.87556 13.64075,18.6002 7.23014,7.48605 8.54034,11.92412 4.62705,15.6733 -1.22146,1.17023 -4.27557,2.96055 -6.7869,3.97848 -5.74598,2.32907 -6.33274,3.21509 -5.12341,7.73661 1.40358,5.24786 1.19261,6.47567 -1.54181,8.97318 -2.36357,2.15879 -2.43986,2.40186 -1.53726,4.89796 0.90419,2.50049 0.61087,5.15342 -0.56979,5.15342 -0.8808,0 -3.93807,5.87952 -3.93807,7.57343 0,0.84968 0.52356,2.79792 1.16346,4.32944 0.70036,1.6762 1.16347,5.21874 1.16347,8.89995 0,5.08618 -0.29858,6.55892 -1.77415,8.75092 -0.97579,1.44956 -2.67525,3.06898 -3.77659,3.59872 -3.03063,1.45772 -12.77125,3.13987 -21.323,3.68234 -13.62936,0.86458 -23.65843,4.12041 -30.09182,9.76901 -3.9584,3.47552 -4.44162,6.23271 -3.83157,21.8625 0.49453,12.67019 0.42342,13.75162 -1.23136,18.72424 -2.30099,6.91447 -2.31782,11.53865 -0.0581,15.97033 3.46493,6.79531 8.83845,13.65633 15.91752,20.32377 6.81063,6.41464 12.48351,13.81119 19.21621,25.05497 1.53383,2.56153 4.90982,7.18347 7.50219,10.27096 2.59237,3.08749 4.7134,5.96552 4.7134,6.39561 0,1.09579 -226.98552,1.08474 -227.66278,-0.0111 z m 219.00209,-2.98926 c 0.79357,-0.50304 -0.0441,-2.2638 -3.59186,-7.55068 -2.5447,-3.79206 -6.9406,-10.44919 -9.76865,-14.79361 -3.65652,-5.6171 -7.06192,-9.64674 -11.78823,-13.94916 -11.07416,-10.08091 -18.93447,-22.28694 -18.93447,-29.40276 0,-1.97608 0.93581,-6.59437 2.07959,-10.26286 2.05975,-6.60635 2.07161,-6.77603 1.24324,-17.79244 -1.40267,-18.65382 0.65894,-23.46324 12.57791,-29.3424 6.43968,-3.17645 12.85591,-4.5747 25.98413,-5.66256 9.67292,-0.80154 18.01979,-2.51485 19.91515,-4.08786 2.80815,-2.33056 3.25703,-10.33067 0.95318,-16.98785 -1.82626,-5.27713 -1.59809,-7.36842 1.28478,-11.7753 2.38565,-3.6468 2.37025,-4.72861 -0.11371,-7.98523 -2.28376,-2.99416 -1.95101,-4.24782 1.12749,-4.24782 1.17311,0 2.77222,-0.46747 3.5536,-1.03882 1.31992,-0.96516 1.34703,-1.40927 0.38235,-6.2626 -1.19242,-5.99907 -0.77066,-7.22807 3.0842,-8.98714 9.88372,-4.51018 10.52653,-4.96064 10.77662,-7.55193 0.21043,-2.1804 -0.45607,-3.25053 -5.07237,-8.14428 -6.53759,-6.93048 -11.82777,-14.28674 -14.81187,-20.59661 -1.91328,-4.04564 -2.34228,-6.13192 -2.78126,-13.52594 -1.99788,-33.6512 -6.01331,-47.83099 -17.63617,-62.27905 -6.47466,-8.04846 -11.66493,-12.01602 -22.7679,-17.40428 -36.22963,-17.58224 -78.4691,-19.67078 -110.17031,-5.44741 -10.2041,4.57827 -23.24881,14.3012 -30.52533,22.75218 -10.11616,11.74896 -15.23315,35.54862 -12.45345,57.92247 2.65065,21.33524 12.7472,40.4413 29.56535,55.94762 l 7.62471,7.02997 -0.006,5.92594 c -0.0135,12.55342 -3.02039,30.2329 -7.35835,43.26437 -4.04548,12.15285 -7.2361,18.11969 -39.55184,73.96672 -9.96195,17.21592 -21.91414,41.26379 -25.14353,50.58889 -2.16382,6.24822 -2.24134,6.82403 -1.01495,7.53896 1.65213,0.96312 211.82226,1.10248 213.33831,0.14147 z m -97.40203,-181.3265 c -2.11928,-0.4591 -4.07896,-3.09418 -4.07896,-5.48477 0,-2.02422 -0.46556,-2.08838 -6.44296,-0.88795 -4.06907,0.81719 -4.66075,0.73991 -8.46756,-1.10593 -2.88541,-1.39906 -5.83416,-2.09581 -9.99562,-2.36184 -10.02052,-0.64059 -17.89897,-6.24473 -22.08471,-15.70942 -1.98934,-4.49827 -2.54337,-4.88726 -9.80465,-6.88397 -5.32438,-1.46411 -7.6759,-4.0327 -10.82241,-11.82146 -3.4325,-8.4967 -3.99616,-12.58935 -3.50373,-25.43968 0.92765,-24.20718 6.24824,-37.6248 21.42949,-54.04151 16.48584,-17.82745 33.73085,-23.92069 67.63155,-23.89644 10.83568,0.008 15.92247,0.3556 21.2307,1.45183 10.99646,2.27093 35.35707,12.8773 43.78359,19.06293 4.88715,3.5875 17.33685,16.57097 20.16323,21.0277 4.69139,7.39755 6.00644,22.29522 2.77717,31.46152 -1.57345,4.46622 -5.85629,9.56314 -9.67105,11.50928 -2.78337,1.41997 -11.26232,3.23763 -20.20976,4.33242 -6.77127,0.82852 -7.0932,1.16126 -6.55908,6.77928 0.36733,3.86374 0.16728,5.34547 -1.01605,7.52572 -1.83613,3.38302 -11.01702,10.44097 -15.6229,12.01035 -4.45214,1.51701 -11.11546,1.49774 -16.31774,-0.0471 -2.26469,-0.67255 -4.85859,-1.02999 -5.76421,-0.79433 -1.81274,0.47171 -6.47392,7.29355 -8.95368,13.1041 -0.87278,2.04508 -1.97262,6.05905 -2.44411,8.91992 -0.47148,2.86087 -1.00643,5.98253 -1.18877,6.93699 -0.18234,0.95446 -1.11825,2.25088 -2.07981,2.88092 -1.85502,1.21545 -9.0775,2.102 -11.98797,1.47151 z m 15.1326,-62.74698 c 3.48899,-1.4578 6.39063,-4.06483 6.36818,-5.72162 -0.009,-0.67219 -1.39691,-2.19866 -3.08401,-3.39215 l -3.06745,-2.16998 -2.17723,1.6097 c -3.15202,2.33039 -7.17275,2.78087 -10.54362,1.18129 -4.01711,-1.90625 -5.93179,-5.40851 -5.93179,-10.85026 0,-4.14622 0.21166,-4.67131 3.01133,-7.47099 3.67318,-3.67318 8.47602,-4.33067 13.32353,-1.82393 1.93879,1.0026 2.3126,0.92439 4.87669,-1.02034 3.3506,-2.54127 3.53987,-4.21972 0.70044,-6.21174 -5.77338,-4.05038 -14.93909,-4.26857 -21.82717,-0.5196 -6.78695,3.69392 -10.16821,9.55777 -10.16821,17.63394 0,8.54826 5.07578,15.99017 12.7693,18.72184 4.22813,1.50125 12.19703,1.51837 15.75001,0.0338 z m -33.56101,-3.84121 0,-3.87823 -9.10522,-0.21845 -9.10521,-0.21845 -0.51066,-2.03463 c -0.96043,-3.82664 0.28453,-4.48787 8.90608,-4.73024 7.74612,-0.21775 7.86727,-0.25022 8.36716,-2.24195 0.27898,-1.11154 0.18765,-2.93184 -0.20294,-4.04509 -0.69507,-1.981 -0.87821,-2.02881 -8.59972,-2.24466 -7.05683,-0.19729 -7.94061,-0.38149 -8.37345,-1.74521 -0.26614,-0.83855 -0.2659,-2.21147 5.3e-4,-3.05094 0.43798,-1.37994 1.31701,-1.5473 9.16611,-1.7452 l 8.68168,-0.2189 0,-3.87823 0,-3.87823 -13.18598,0 -13.18598,0 -0.20864,18.21163 c -0.11476,10.01639 -0.0353,18.66342 0.17662,19.21561 0.29914,0.77954 3.38044,0.95654 13.78245,0.7917 l 13.39717,-0.2123 0,-3.87823 z m 63.07645,2.49402 c 0.45482,-0.54801 0.93386,-3.07855 1.06454,-5.62343 l 0.2376,-4.62705 5.42952,-0.38782 5.42952,-0.38782 0,-3.49041 0,-3.4904 -5.42952,-0.38783 -5.42952,-0.38782 -0.2318,-4.88168 c -0.20504,-4.31803 -0.45132,-4.9817 -2.13302,-5.74793 -1.40007,-0.63791 -2.40239,-0.63791 -3.80245,0 -1.6817,0.76623 -1.92798,1.4299 -2.13303,5.74793 l -0.2318,4.88168 -5.42952,0.38782 -5.42952,0.38783 0,3.4904 0,3.49041 5.42952,0.38782 5.42952,0.38782 0.2376,4.62705 c 0.27408,5.33724 1.05458,6.61982 4.02845,6.61982 1.17535,0 2.50911,-0.44838 2.96391,-0.99639 z"
     style="fill:#8f9497"
     inkscape:export-xdpi="113.7049"
     inkscape:export-ydpi="113.7049" />
  <path
     inkscape:connector-curvature="0"
     id="path4260"
     d="m 208.75831,575.48531 c -0.83678,-1.35394 3.74869,-13.98038 10.14396,-27.93218 4.08955,-8.92166 13.86941,-27.04227 23.06446,-42.73492 11.32057,-19.32015 25.40099,-44.2198 28.57103,-50.52473 7.54489,-15.00604 12.18974,-33.42829 12.8786,-51.07877 l 0.41237,-10.56591 -8.85712,-8.82524 c -9.13805,-9.10514 -13.7875,-15.37043 -19.63018,-26.45229 -4.1331,-7.8393 -5.30902,-11.29348 -7.5152,-22.07523 -2.52444,-12.33714 -2.39579,-28.49074 0.32078,-40.27817 3.83793,-16.65315 8.87148,-25.54651 19.71536,-34.83351 15.07656,-12.91195 28.66507,-19.33687 50.27276,-23.76995 34.65532,-7.10996 87.52609,6.51598 107.29898,27.65326 14.32734,15.31597 19.57549,31.05058 21.78315,65.30865 0.66841,10.3723 1.00733,12.26742 2.84361,15.90074 2.95014,5.83722 8.11181,12.87556 13.64075,18.6002 7.23014,7.48605 8.54034,11.92412 4.62705,15.6733 -1.22146,1.17023 -4.27557,2.96055 -6.7869,3.97848 -5.74598,2.32907 -6.33274,3.21509 -5.12341,7.73661 1.40358,5.24786 1.19261,6.47567 -1.54181,8.97318 -2.36357,2.15879 -2.43986,2.40186 -1.53726,4.89796 0.90419,2.50049 0.61087,5.15342 -0.56979,5.15342 -0.8808,0 -3.93807,5.87952 -3.93807,7.57343 0,0.84968 0.52356,2.79792 1.16346,4.32944 0.70036,1.6762 1.16347,5.21874 1.16347,8.89995 0,5.08618 -0.29858,6.55892 -1.77415,8.75092 -0.97579,1.44956 -2.67525,3.06898 -3.77659,3.59872 -3.03063,1.45772 -12.77125,3.13987 -21.323,3.68234 -13.62936,0.86458 -23.65843,4.12041 -30.09182,9.76901 -3.9584,3.47552 -4.44162,6.23271 -3.83157,21.8625 0.49453,12.67019 0.42342,13.75162 -1.23136,18.72424 -2.30099,6.91447 -2.31782,11.53865 -0.0581,15.97033 3.46493,6.79531 8.83845,13.65633 15.91752,20.32377 6.81063,6.41464 12.48351,13.81119 19.21621,25.05497 1.53383,2.56153 4.90982,7.18347 7.50219,10.27096 2.59237,3.08749 4.7134,5.96552 4.7134,6.39561 0,1.09579 -226.98552,1.08474 -227.66278,-0.0111 z m 219.00209,-2.98926 c 0.79357,-0.50304 -0.0441,-2.2638 -3.59186,-7.55068 -2.5447,-3.79206 -6.9406,-10.44919 -9.76865,-14.79361 -3.65652,-5.6171 -7.06192,-9.64674 -11.78823,-13.94916 -11.07416,-10.08091 -18.93447,-22.28694 -18.93447,-29.40276 0,-1.97608 0.93581,-6.59437 2.07959,-10.26286 2.05975,-6.60635 2.07161,-6.77603 1.24324,-17.79244 -1.40267,-18.65382 0.65894,-23.46324 12.57791,-29.3424 6.43968,-3.17645 12.85591,-4.5747 25.98413,-5.66256 9.67292,-0.80154 18.01979,-2.51485 19.91515,-4.08786 2.80815,-2.33056 3.25703,-10.33067 0.95318,-16.98785 -1.82626,-5.27713 -1.59809,-7.36842 1.28478,-11.7753 2.38565,-3.6468 2.37025,-4.72861 -0.11371,-7.98523 -2.28376,-2.99416 -1.95101,-4.24782 1.12749,-4.24782 1.17311,0 2.77222,-0.46747 3.5536,-1.03882 1.31992,-0.96516 1.34703,-1.40927 0.38235,-6.2626 -1.19242,-5.99907 -0.77066,-7.22807 3.0842,-8.98714 9.88372,-4.51018 10.52653,-4.96064 10.77662,-7.55193 0.21043,-2.1804 -0.45607,-3.25053 -5.07237,-8.14428 -6.53759,-6.93048 -11.82777,-14.28674 -14.81187,-20.59661 -1.91328,-4.04564 -2.34228,-6.13192 -2.78126,-13.52594 -1.99788,-33.6512 -6.01331,-47.83099 -17.63617,-62.27905 -6.47466,-8.04846 -11.66493,-12.01602 -22.7679,-17.40428 -36.22963,-17.58224 -78.4691,-19.67078 -110.17031,-5.44741 -10.2041,4.57827 -23.24881,14.3012 -30.52533,22.75218 -10.11616,11.74896 -15.23315,35.54862 -12.45345,57.92247 2.65065,21.33524 12.7472,40.4413 29.56535,55.94762 l 7.62471,7.02997 -0.006,5.92594 c -0.0135,12.55342 -3.02039,30.2329 -7.35835,43.26437 -4.04548,12.15285 -7.2361,18.11969 -39.55184,73.96672 -9.96195,17.21592 -21.91414,41.26379 -25.14353,50.58889 -2.16382,6.24822 -2.24134,6.82403 -1.01495,7.53896 1.65213,0.96312 211.82226,1.10248 213.33831,0.14147 z m -97.40203,-181.3265 c -2.11928,-0.4591 -4.07896,-3.09418 -4.07896,-5.48477 0,-2.02422 -0.46556,-2.08838 -6.44296,-0.88795 -4.06907,0.81719 -4.66075,0.73991 -8.46756,-1.10593 -2.88541,-1.39906 -5.83416,-2.09581 -9.99562,-2.36184 -10.02052,-0.64059 -17.89897,-6.24473 -22.08471,-15.70942 -1.98934,-4.49827 -2.54337,-4.88726 -9.80465,-6.88397 -5.32438,-1.46411 -7.6759,-4.0327 -10.82241,-11.82146 -3.4325,-8.4967 -3.99616,-12.58935 -3.50373,-25.43968 0.92765,-24.20718 6.24824,-37.6248 21.42949,-54.04151 16.48584,-17.82745 33.73085,-23.92069 67.63155,-23.89644 10.83568,0.008 15.92247,0.3556 21.2307,1.45183 10.99646,2.27093 35.35707,12.8773 43.78359,19.06293 4.88715,3.5875 17.33685,16.57097 20.16323,21.0277 4.69139,7.39755 6.00644,22.29522 2.77717,31.46152 -1.57345,4.46622 -5.85629,9.56314 -9.67105,11.50928 -2.78337,1.41997 -11.26232,3.23763 -20.20976,4.33242 -6.77127,0.82852 -7.0932,1.16126 -6.55908,6.77928 0.36733,3.86374 0.16728,5.34547 -1.01605,7.52572 -1.83613,3.38302 -11.01702,10.44097 -15.6229,12.01035 -4.45214,1.51701 -11.11546,1.49774 -16.31774,-0.0471 -2.26469,-0.67255 -4.85859,-1.02999 -5.76421,-0.79433 -1.81274,0.47171 -6.47392,7.29355 -8.95368,13.1041 -0.87278,2.04508 -1.97262,6.05905 -2.44411,8.91992 -0.47148,2.86087 -1.00643,5.98253 -1.18877,6.93699 -0.18234,0.95446 -1.11825,2.25088 -2.07981,2.88092 -1.85502,1.21545 -9.0775,2.102 -11.98797,1.47151 z m 8.82366,-4.50293 c 1.21418,-0.85045 1.71466,-2.24998 2.02381,-5.65929 0.68514,-7.55585 6.47413,-20.02589 12.06163,-25.98188 2.37889,-2.53577 2.96291,-2.57151 9.34247,-0.57173 10.05817,3.15291 17.33221,1.31264 25.29426,-6.39921 4.60059,-4.45602 4.87289,-5.3343 3.49966,-11.2875 -1.42732,-6.18769 -0.27241,-6.8458 15.93052,-9.07785 10.42492,-1.43609 15.019,-3.21875 17.84572,-6.92478 6.12888,-8.03537 6.43326,-23.68004 0.65263,-33.54393 -2.82885,-4.82708 -13.54786,-15.98389 -19.22595,-20.01121 -5.76434,-4.08849 -13.31952,-7.92048 -26.03217,-13.20355 -14.60742,-6.07047 -15.49806,-6.21827 -37.231,-6.17833 -21.27719,0.0391 -27.47338,0.83818 -39.02304,5.03257 -8.87378,3.22261 -14.87415,7.28781 -23.19207,15.71242 -14.30706,14.49055 -19.81562,26.58639 -21.563,47.34855 -1.20576,14.32665 -0.15038,22.94092 3.83298,31.28564 1.66363,3.48514 3.66517,6.6674 4.44788,7.07168 0.7827,0.40428 3.76733,1.16777 6.63251,1.69664 2.86519,0.52886 5.54408,1.36481 5.95311,1.85766 0.40903,0.49285 1.5101,2.9445 2.44682,5.44811 1.98986,5.31836 5.93611,9.99567 10.38276,12.3062 2.43846,1.26706 4.65361,1.65663 9.74848,1.71442 5.66107,0.0642 6.94591,0.33599 9.0898,1.9227 3.4544,2.55663 7.81589,2.29958 12.77699,-0.75302 2.09846,-1.29119 4.12066,-2.15894 4.49381,-1.92833 0.37314,0.23062 0.90267,2.42078 1.17677,4.86703 0.27408,2.44626 0.63659,4.88404 0.80558,5.4173 0.42449,1.33951 5.84624,1.2285 7.82904,-0.16031 z"
     style="fill:#8c6b3d"
     inkscape:export-xdpi="113.7049"
     inkscape:export-ydpi="113.7049" />
  <path
     inkscape:connector-curvature="0"
     id="path4258"
     d="m 209.15691,574.80216 c 0,-0.38532 1.22084,-4.20796 2.71298,-8.49477 4.84472,-13.91852 13.02429,-30.53986 26.5838,-54.01977 19.78172,-34.2544 30.02199,-52.35311 33.0074,-58.33748 7.46005,-14.95394 11.88646,-32.56287 12.6799,-50.44259 l 0.4903,-11.04872 -8.53817,-8.34242 c -8.96952,-8.76387 -15.60228,-17.81721 -21.17794,-28.90664 -4.76496,-9.47703 -7.32938,-20.44347 -8.25049,-35.28228 -1.08415,-17.46519 4.4662,-39.34503 12.74231,-50.23097 8.29353,-10.90887 26.57155,-23.10726 42.66334,-28.47269 26.11871,-8.70865 56.21027,-7.88914 85.88947,2.33913 21.17555,7.29767 31.60387,13.80193 40.97777,25.55828 11.02713,13.82978 15.51228,29.17455 17.53279,59.98391 0.62684,9.55824 1.07883,12.21308 2.67167,15.69227 2.48877,5.43619 8.17622,13.38028 14.11872,19.72066 5.46518,5.83111 6.5131,7.56043 6.5131,10.74813 0,2.84879 -3.0373,5.6035 -8.30756,7.53465 -2.04322,0.74868 -4.37869,1.97982 -5.18994,2.73585 -1.35953,1.26701 -1.39845,1.73525 -0.49726,5.98181 1.14767,5.40812 0.71047,7.35503 -1.92089,8.55395 -2.10203,0.95776 -2.43334,2.82214 -1.04356,5.87236 0.75538,1.65788 0.60934,2.25519 -1.02669,4.1995 -3.62337,4.30614 -4.15181,6.70175 -2.57022,11.65184 2.68859,8.41479 1.345,17.88632 -2.9233,20.60766 -2.55155,1.62678 -12.88867,3.50279 -23.86634,4.33132 -5.31531,0.40117 -11.45534,1.22321 -13.64451,1.82677 -5.75318,1.58614 -13.09264,5.72031 -16.13625,9.08922 -3.37061,3.73086 -3.9432,7.90763 -2.82774,20.62695 0.85501,9.74943 0.48737,13.83447 -1.83047,20.33934 -2.09248,5.87243 -1.60969,11.26174 1.51871,16.95316 4.01983,7.31318 8.14776,12.44991 14.83019,18.45439 6.51171,5.85109 10.48223,10.88016 17.0847,21.6396 2.37603,3.872 6.30245,9.48329 8.72536,12.46953 2.42291,2.98623 4.67161,5.86582 4.9971,6.39907 0.4724,0.77393 -22.26767,0.96956 -112.69824,0.96956 -66.91692,0 -113.29004,-0.28677 -113.29004,-0.70058 z m 219.05646,-1.32152 c 1.86051,-0.71394 1.49356,-2.26902 -1.44326,-6.11647 -1.4686,-1.92397 -5.22079,-7.5989 -8.33819,-12.61096 -4.37127,-7.02796 -7.9027,-11.41974 -15.43569,-19.19622 -10.24476,-10.57592 -13.49069,-14.77597 -16.62913,-21.51715 -2.46263,-5.28956 -2.42597,-9.51818 0.14957,-17.25183 2.03263,-6.10344 2.05256,-6.36736 1.31768,-17.45467 -0.812,-12.25109 -0.24154,-18.69253 1.92435,-21.72874 2.18615,-3.06462 10.13274,-8.03483 15.84416,-9.90975 3.08294,-1.01207 9.12755,-2.05417 14.72722,-2.53902 11.9712,-1.03652 22.15054,-2.84398 24.49399,-4.34918 4.17402,-2.68099 5.09518,-10.10593 2.30735,-18.59824 l -1.70001,-5.17858 2.49755,-4.72719 c 2.88036,-5.45174 2.97044,-6.34948 0.90247,-8.99324 -1.94114,-2.4816 -1.95429,-3.87823 -0.0366,-3.87823 0.83313,0 2.40382,-0.40507 3.4904,-0.90015 2.24581,-1.02326 2.46472,-2.67841 1.05255,-7.95834 -1.34835,-5.04134 -0.28677,-6.78108 5.40396,-8.85604 10.87321,-3.96456 11.43801,-8.32141 2.19878,-16.96128 -3.95454,-3.698 -10.5035,-12.68154 -13.45429,-18.45592 -1.71146,-3.34914 -2.1234,-5.67713 -3.01958,-17.06421 -1.52742,-19.40779 -2.4147,-25.88084 -4.59074,-33.49145 -4.02557,-14.07928 -10.2355,-24.35564 -20.2996,-33.59241 -11.16308,-10.2454 -36.81618,-20.20058 -61.11588,-23.7172 -11.19093,-1.61953 -33.38538,-1.19152 -42.24965,0.81477 -8.4139,1.90435 -17.44635,4.84997 -23.75102,7.74555 -14.33431,6.58342 -30.4843,20.38472 -35.4242,30.27248 -8.71701,17.44805 -10.71127,41.83869 -5.21152,63.73892 1.9538,7.78013 7.8548,19.73826 14.01135,28.39342 2.65885,3.73793 8.44592,10.24109 12.86015,14.45147 l 8.02588,7.65523 0,5.15663 c 0,6.92901 -1.34348,18.60342 -3.17493,27.58919 -3.70227,18.16463 -8.09599,28.05475 -27.04988,60.88819 -5.66417,9.81192 -13.62338,23.59902 -17.68713,30.638 -4.06375,7.03899 -10.09702,18.20828 -13.40724,24.82066 -5.67523,11.33659 -13.14281,28.91198 -13.14281,30.93234 0,0.50552 0.78534,1.2348 1.7452,1.62061 1.92983,0.7757 212.203,1.09866 214.20868,0.32901 z M 328.41243,390.06129 c -0.78635,-0.45801 -1.35738,-1.71332 -1.35738,-2.98402 0,-3.10023 -1.4603,-4.07492 -4.70913,-3.14317 -4.52047,1.29645 -8.62607,0.89882 -11.96725,-1.15908 -2.45453,-1.51179 -4.16731,-1.91599 -8.20001,-1.93514 -2.8036,-0.0133 -6.80528,-0.60613 -8.89264,-1.31736 -5.02431,-1.71195 -10.52868,-7.2867 -13.74227,-13.91796 l -2.51784,-5.19557 -5.25106,-1.29415 c -6.96047,-1.71547 -9.85437,-4.52657 -13.15356,-12.7772 -2.42449,-6.06319 -2.5045,-6.63739 -2.77223,-19.89596 -0.54344,-26.91198 4.76108,-41.64496 21.16139,-58.77451 8.08697,-8.44656 13.70467,-12.7133 21.55617,-16.37232 14.37421,-6.69877 43.22251,-9.6888 63.70017,-6.60231 13.80628,2.08095 40.19785,13.82715 50.15408,22.32227 6.50495,5.55033 14.46714,14.4578 17.32836,19.3856 2.01802,3.4756 4.35259,13.26724 4.33347,18.17537 -0.0142,3.63955 -1.93987,11.99669 -3.41222,14.80843 -1.76372,3.36821 -6.00483,7.25761 -9.71384,8.9083 -2.76763,1.23172 -19.22058,4.38724 -23.06851,4.42432 -2.218,0.0214 -3.21409,2.21522 -2.48304,5.46886 1.16187,5.17107 -0.22362,8.57777 -5.34618,13.14548 -8.89119,7.92813 -16.71605,9.99114 -26.9042,7.09328 -3.47804,-0.98928 -5.85149,-1.29219 -6.67432,-0.85181 -4.00238,2.142 -11.53688,18.1395 -11.56913,24.56392 -0.0223,4.44325 -1.3356,6.97857 -4.11724,7.94825 -2.95795,1.03115 -10.59575,1.01664 -12.38159,-0.0235 z m 10.7696,-3.39467 c 1.21418,-0.85045 1.71466,-2.24998 2.02381,-5.65929 0.68514,-7.55585 6.47413,-20.02589 12.06163,-25.98188 2.37889,-2.53577 2.96291,-2.57151 9.34247,-0.57173 10.05817,3.15291 17.33221,1.31264 25.29426,-6.39921 4.60059,-4.45602 4.87289,-5.3343 3.49966,-11.2875 -1.42732,-6.18769 -0.27241,-6.8458 15.93052,-9.07785 10.42492,-1.43609 15.019,-3.21875 17.84572,-6.92478 6.12888,-8.03537 6.43326,-23.68004 0.65263,-33.54393 -2.82885,-4.82708 -13.54786,-15.98389 -19.22595,-20.01121 -5.76434,-4.08849 -13.31952,-7.92048 -26.03217,-13.20355 -14.60742,-6.07047 -15.49806,-6.21827 -37.231,-6.17833 -21.27719,0.0391 -27.47338,0.83818 -39.02304,5.03257 -8.87378,3.22261 -14.87415,7.28781 -23.19207,15.71242 -14.30706,14.49055 -19.81562,26.58639 -21.563,47.34855 -1.20576,14.32665 -0.15038,22.94092 3.83298,31.28564 1.66363,3.48514 3.66517,6.6674 4.44788,7.07168 0.7827,0.40428 3.76733,1.16777 6.63251,1.69664 2.86519,0.52886 5.54408,1.36481 5.95311,1.85766 0.40903,0.49285 1.5101,2.9445 2.44682,5.44811 1.98986,5.31836 5.93611,9.99567 10.38276,12.3062 2.43846,1.26706 4.65361,1.65663 9.74848,1.71442 5.66107,0.0642 6.94591,0.33599 9.0898,1.9227 3.4544,2.55663 7.81589,2.29958 12.77699,-0.75302 2.09846,-1.29119 4.12066,-2.15894 4.49381,-1.92833 0.37314,0.23062 0.90267,2.42078 1.17677,4.86703 0.27408,2.44626 0.63659,4.88404 0.80558,5.4173 0.42449,1.33951 5.84624,1.2285 7.82904,-0.16031 z"
     style="fill:#62625e"
     inkscape:export-xdpi="113.7049"
     inkscape:export-ydpi="113.7049" />
  <path
     inkscape:connector-curvature="0"
     id="path4256"
     d="m 209.15691,574.80216 c 0,-0.38532 1.22084,-4.20796 2.71298,-8.49477 4.84472,-13.91852 13.02429,-30.53986 26.5838,-54.01977 19.78172,-34.2544 30.02199,-52.35311 33.0074,-58.33748 7.46005,-14.95394 11.88646,-32.56287 12.6799,-50.44259 l 0.4903,-11.04872 -8.53817,-8.34242 c -8.96952,-8.76387 -15.60228,-17.81721 -21.17794,-28.90664 -4.76496,-9.47703 -7.32938,-20.44347 -8.25049,-35.28228 -1.08415,-17.46519 4.4662,-39.34503 12.74231,-50.23097 8.29353,-10.90887 26.57155,-23.10726 42.66334,-28.47269 26.11871,-8.70865 56.21027,-7.88914 85.88947,2.33913 21.17555,7.29767 31.60387,13.80193 40.97777,25.55828 11.02713,13.82978 15.51228,29.17455 17.53279,59.98391 0.62684,9.55824 1.07883,12.21308 2.67167,15.69227 2.48877,5.43619 8.17622,13.38028 14.11872,19.72066 5.46518,5.83111 6.5131,7.56043 6.5131,10.74813 0,2.84879 -3.0373,5.6035 -8.30756,7.53465 -2.04322,0.74868 -4.37869,1.97982 -5.18994,2.73585 -1.35953,1.26701 -1.39845,1.73525 -0.49726,5.98181 1.14767,5.40812 0.71047,7.35503 -1.92089,8.55395 -2.10203,0.95776 -2.43334,2.82214 -1.04356,5.87236 0.75538,1.65788 0.60934,2.25519 -1.02669,4.1995 -3.62337,4.30614 -4.15181,6.70175 -2.57022,11.65184 2.68859,8.41479 1.345,17.88632 -2.9233,20.60766 -2.55155,1.62678 -12.88867,3.50279 -23.86634,4.33132 -5.31531,0.40117 -11.45534,1.22321 -13.64451,1.82677 -5.75318,1.58614 -13.09264,5.72031 -16.13625,9.08922 -3.37061,3.73086 -3.9432,7.90763 -2.82774,20.62695 0.85501,9.74943 0.48737,13.83447 -1.83047,20.33934 -2.09248,5.87243 -1.60969,11.26174 1.51871,16.95316 4.01983,7.31318 8.14776,12.44991 14.83019,18.45439 6.51171,5.85109 10.48223,10.88016 17.0847,21.6396 2.37603,3.872 6.30245,9.48329 8.72536,12.46953 2.42291,2.98623 4.67161,5.86582 4.9971,6.39907 0.4724,0.77393 -22.26767,0.96956 -112.69824,0.96956 -66.91692,0 -113.29004,-0.28677 -113.29004,-0.70058 z m 219.05646,-1.32152 c 1.86051,-0.71394 1.49356,-2.26902 -1.44326,-6.11647 -1.4686,-1.92397 -5.22079,-7.5989 -8.33819,-12.61096 -4.37127,-7.02796 -7.9027,-11.41974 -15.43569,-19.19622 -10.24476,-10.57592 -13.49069,-14.77597 -16.62913,-21.51715 -2.46263,-5.28956 -2.42597,-9.51818 0.14957,-17.25183 2.03263,-6.10344 2.05256,-6.36736 1.31768,-17.45467 -0.812,-12.25109 -0.24154,-18.69253 1.92435,-21.72874 2.18615,-3.06462 10.13274,-8.03483 15.84416,-9.90975 3.08294,-1.01207 9.12755,-2.05417 14.72722,-2.53902 11.9712,-1.03652 22.15054,-2.84398 24.49399,-4.34918 4.17402,-2.68099 5.09518,-10.10593 2.30735,-18.59824 l -1.70001,-5.17858 2.49755,-4.72719 c 2.88036,-5.45174 2.97044,-6.34948 0.90247,-8.99324 -1.94114,-2.4816 -1.95429,-3.87823 -0.0366,-3.87823 0.83313,0 2.40382,-0.40507 3.4904,-0.90015 2.24581,-1.02326 2.46472,-2.67841 1.05255,-7.95834 -1.34835,-5.04134 -0.28677,-6.78108 5.40396,-8.85604 10.87321,-3.96456 11.43801,-8.32141 2.19878,-16.96128 -3.95454,-3.698 -10.5035,-12.68154 -13.45429,-18.45592 -1.71146,-3.34914 -2.1234,-5.67713 -3.01958,-17.06421 -1.52742,-19.40779 -2.4147,-25.88084 -4.59074,-33.49145 -4.02557,-14.07928 -10.2355,-24.35564 -20.2996,-33.59241 -11.16308,-10.2454 -36.81618,-20.20058 -61.11588,-23.7172 -11.19093,-1.61953 -33.38538,-1.19152 -42.24965,0.81477 -8.4139,1.90435 -17.44635,4.84997 -23.75102,7.74555 -14.33431,6.58342 -30.4843,20.38472 -35.4242,30.27248 -8.71701,17.44805 -10.71127,41.83869 -5.21152,63.73892 1.9538,7.78013 7.8548,19.73826 14.01135,28.39342 2.65885,3.73793 8.44592,10.24109 12.86015,14.45147 l 8.02588,7.65523 0,5.15663 c 0,6.92901 -1.34348,18.60342 -3.17493,27.58919 -3.70227,18.16463 -8.09599,28.05475 -27.04988,60.88819 -5.66417,9.81192 -13.62338,23.59902 -17.68713,30.638 -4.06375,7.03899 -10.09702,18.20828 -13.40724,24.82066 -5.67523,11.33659 -13.14281,28.91198 -13.14281,30.93234 0,0.50552 0.78534,1.2348 1.7452,1.62061 1.92983,0.7757 212.203,1.09866 214.20868,0.32901 z"
     style="fill:#704916"
     inkscape:export-xdpi="113.7049"
     inkscape:export-ydpi="113.7049" />
</svg>
